<svg id="Layer_1" data-name="Layer 1" xmlns="http://www.w3.org/2000/svg" viewBox="0 0 576 189.18"><defs><style>.cls-1{fill:#171717;}</style></defs><path class="cls-1" d="M81.35,48.51a43.82,43.82,0,0,1,32.37-13.37,43.69,43.69,0,0,1,32.16,13.37,43.69,43.69,0,0,1,13.37,32.16A43.82,43.82,0,0,1,145.88,113a44.31,44.31,0,0,1-32.16,13.16A44.45,44.45,0,0,1,81.35,113,43.81,43.81,0,0,1,68,80.67,43.68,43.68,0,0,1,81.35,48.51ZM88,80.67c0,7.73,2.5,14,7.3,19a25.56,25.56,0,0,0,18.38,7.3,24.72,24.72,0,0,0,18.17-7.3c5-5,7.52-11.28,7.52-19s-2.51-14-7.52-18.8a24.13,24.13,0,0,0-18.17-7.51,24.94,24.94,0,0,0-18.38,7.51C90.54,66.68,88,73,88,80.67Z"/><path class="cls-1" d="M219.83,126.82h-45.1c-9.82,0-15.46-5-15.46-12.53,0-3.55,1.88-8.14,5.64-13.36l31.53-43.86H161.57V37.86h46.36q14.41,0,14.41,11.9a17.42,17.42,0,0,1-4,10.86l-33.83,47h35.29Z"/><path class="cls-1" d="M250.88,137.26c.63,14,8.35,22.77,22.35,22.77,14.82,0,22.34-9.61,22.34-24.85v-16.5a31.86,31.86,0,0,1-3.13,2.3c-2.51,1.67-12.74,5.84-22.56,5.84q-19.41,0-32.57-13.15A44.45,44.45,0,0,1,224.15,81.3a45.29,45.29,0,0,1,45.73-45.53A46.58,46.58,0,0,1,302,48.09c9,8.15,13.58,19.43,13.58,33.84v53.25c0,13.15-4,23.59-12.11,31.32-7.94,7.73-18,11.69-30.28,11.69-11.91,0-21.72-3.75-29.66-11.06S231.46,150,230.83,137.26Zm19-29.65c14.41,0,25.69-11.07,25.69-26.31,0-15-10.86-26.32-25.69-26.32-14.4,0-25.68,11.28-25.68,26.32C244.2,96.54,255.48,107.61,269.88,107.61Z"/><path class="cls-1" d="M392,126.82v-7.1a32.29,32.29,0,0,1-3.14,2.3c-2.5,1.67-12.74,5.85-22.55,5.85q-19.42,0-32.58-13.16a44.44,44.44,0,0,1-13.15-32.37,45.28,45.28,0,0,1,45.73-45.53,46.56,46.56,0,0,1,32.16,12.33C407.41,57.28,412,68.56,412,83v43.85Zm-25.69-18.17c14.41,0,25.69-11.06,25.69-26.31C392,67.31,381.1,56,366.27,56c-14.41,0-25.69,11.28-25.69,26.31C340.58,97.59,351.86,108.65,366.27,108.65Z"/><path class="cls-1" d="M488.52,125.78v-7.1a33.62,33.62,0,0,1-3.13,2.3c-2.51,1.67-12.74,5.84-22.56,5.84q-19.41,0-32.57-13.15A44.43,44.43,0,0,1,417.1,81.3a45.29,45.29,0,0,1,45.73-45.53A46.59,46.59,0,0,1,495,48.09c9,8.15,13.58,19.42,13.58,33.83v43.86Zm-25.69-18.17c14.41,0,25.69-11.07,25.69-26.31,0-15-10.86-26.32-25.69-26.32-14.41,0-25.68,11.28-25.68,26.32C437.15,96.54,448.42,107.61,462.83,107.61Z"/><path class="cls-1" d="M534.43,126.82H514.59v-53c0-25.69,14.41-35.92,33.83-35.92h4.8V57.07h-3.76c-10,0-15,5.64-15,16.71Z"/><path class="cls-1" d="M48.83,125.43H29v-53C29,46.7,43.4,36.47,62.82,36.47h4.8V55.68H63.86c-10,0-15,5.63-15,16.71Z"/></svg>