<svg xmlns="http://www.w3.org/2000/svg" width="520.547" height="78" viewBox="0 0 520.547 78"><defs fill="#000000"><style>.a,.b{fill:#000000;}.a{fill-rule:evenodd;}.b{font-size:55px;font-family:Arial-Black, Arial;font-weight:800;}</style></defs><g transform="translate(-700 -81.247)"><path class="a" d="M50.131,2258.722c22.787,0,41.126-9.838,41.126-22.092,0-12.067-18.338-21.905-41.126-21.905s-41.3,9.838-41.3,21.905c0,12.253,18.515,22.092,41.3,22.092Zm7.656-10.767c-.714,1.671-1.781,5.2-4.451,6.683a7.788,7.788,0,0,1-2.85.558h-.356a69.526,69.526,0,0,1-20.65-2.972.177.177,0,0,1-.179-.185c-.533-.187-.889-.371-.889-.742,0-.187.177-.373.356-.558a.39.39,0,0,1,.356-.371c1.424-1.3,5.52-4.456,13.174-7.427a87.6,87.6,0,0,1,9.791-3.34c2.137-.371,9.791-1.671,5.7,8.354Zm20.827-22.279a2.511,2.511,0,0,1,.714-.555,2.922,2.922,0,0,1,.889.371c4.807,3.155,7.654,7.053,7.654,11.138,0,7.611-9.257,14.109-22.608,17.081-.891.185-1.424.185-1.78-.187v-.558c.177-.185.177-.371.356-.556,7.3-8.912,13-22.092,14.6-25.992,0-.184.177-.555.177-.742Zm-36.139-.184c.712-1.672,1.781-5.2,4.629-6.685a6.28,6.28,0,0,1,2.67-.556.239.239,0,0,1,.356,0,64.029,64.029,0,0,1,20.652,2.969h.356c.533.187.712.558.712.742a.983.983,0,0,1-.356.744s-.179.185-.356.371a53.753,53.753,0,0,1-13.174,7.425,61.8,61.8,0,0,1-9.792,3.156c-2.135.557-9.79,1.671-5.7-8.167ZM35,2219.736c.889-.185,1.424-.185,1.6,0s.179.371,0,.742c-.177.186-.177.371-.356.558-7.3,8.911-12.817,22.091-14.419,25.99-.179.186-.179.557-.356.557-.179.371-.356.556-.712.556a2.3,2.3,0,0,1-.891-.185c-4.808-3.156-7.655-7.056-7.655-11.324,0-7.612,9.434-14.11,22.788-16.894Z" transform="translate(691.172 -2113.066)" fill="#000000"/><text class="b" transform="translate(794.547 142.247)" fill="#000000"><tspan x="0" y="0" fill="#000000">SAS HYUNDAI</tspan></text></g></svg>