<svg xmlns="http://www.w3.org/2000/svg" viewBox="0 0 273.83 55.79"><defs><style>.cls-1,.cls-2{fill:#f1b500;}.cls-2,.cls-4,.cls-6{stroke:#fff;stroke-miterlimit:10;stroke-width:4px;}.cls-3,.cls-4{fill:#e33e2b;}.cls-5,.cls-6{fill:#3a7cec;}.cls-7{fill:#141414;}</style></defs><g id="Layer_2" data-name="Layer 2"><g id="Layer_1-2" data-name="Layer 1"><path class="cls-1" d="M9.86,19.68a19.69,19.69,0,0,1,39.37,0"/><circle class="cls-2" cx="29.96" cy="18.31" r="7"/><path class="cls-3" d="M29.55,53.14A19.68,19.68,0,1,1,9.83,19.07"/><circle class="cls-4" cx="18.29" cy="36.44" r="7"/><path class="cls-5" d="M49.18,19A19.68,19.68,0,1,1,29.55,53.1"/><circle class="cls-6" cx="40.35" cy="37.08" r="7"/><path class="cls-7" d="M88.73,51.43c-8.79,0-15.66-4.36-16-12.63H83.37a4.7,4.7,0,0,0,5.07,4.66c2.91,0,4.77-1.46,4.77-3.85,0-7.56-20.43-3.49-20.32-18,0-7.74,6.35-12,14.91-12,8.91,0,14.9,4.43,15.31,12.23H92.34c-.18-2.62-2-4.19-4.72-4.25-2.38-.06-4.19,1.16-4.19,3.73,0,7.1,20.2,3.9,20.2,17.58C103.63,45.73,98.28,51.43,88.73,51.43Z"/><path class="cls-7" d="M129.54,43.8H114.75l-2.37,7H101.59l14.83-41H128l14.83,41H131.91Zm-7.39-23.14L117.08,35.8h10.19Z"/><path class="cls-7" d="M156.61,51.43c-8.79,0-15.66-4.36-16-12.63h10.59a4.69,4.69,0,0,0,5.07,4.66c2.91,0,4.77-1.46,4.77-3.85,0-7.56-20.43-3.49-20.32-18,0-7.74,6.35-12,14.91-12,8.9,0,14.9,4.43,15.31,12.23H160.22c-.18-2.62-2-4.19-4.72-4.25-2.38-.06-4.19,1.16-4.19,3.73,0,7.1,20.2,3.9,20.2,17.58C171.51,45.73,166.16,51.43,156.61,51.43Z"/><path class="cls-7" d="M196.84,51.73c-11.55,0-20.1-8.72-20.1-21.09s8.55-21.1,20.1-21.1,20.09,8.67,20.09,21.1S208.39,51.73,196.84,51.73Zm0-2.35c9.72,0,17.32-7.13,17.32-18.74s-7.6-18.8-17.32-18.8S179.45,19,179.45,30.64,187.11,49.38,196.84,49.38Z"/><path class="cls-7" d="M248.83,9.8v41H246L221.83,14.26V50.8h-3V9.8h2.87l24.13,37V9.8Z"/><path class="cls-7" d="M273.83,11.8h-18v17h16v3h-16v17h18v2h-21V9.8h21Z"/></g></g></svg>