<svg xmlns="http://www.w3.org/2000/svg" viewBox="0 0 163.14 77.81"><defs><style>.cls-1{fill:#070707;}</style></defs><g id="Layer_2" data-name="Layer 2"><g id="Layer_1-2" data-name="Layer 1"><g id="OBJECTS"><polygon class="cls-1" points="43.52 38.63 24.44 20.23 34.86 20.23 48.58 34.07 72.78 12.29 48.91 26.9 37.07 15.5 13 15.5 35.92 38.59 0 77.81 43.52 38.63"/><polygon class="cls-1" points="98.25 0 54.17 39.69 71.96 57.58 63.39 57.58 49.23 44.13 25.47 65.53 48.59 51.37 59.47 62.32 85.65 62.32 62.32 39.22 98.25 0"/><path class="cls-1" d="M103.56,44.17H94.43V55.86a2.35,2.35,0,0,0,1.15,2.29,6.28,6.28,0,0,0,3,.61,22.07,22.07,0,0,0,2.93-.19A14.16,14.16,0,0,0,104,58l1.26,4.13a32.23,32.23,0,0,1-8.44,1.13q-5.64,0-8.11-1.63a5.46,5.46,0,0,1-2.5-4.86V44.17h-5V39.94h5V32.68H94.4V40h9.13Z"/><path class="cls-1" d="M110.73,63.31V40h6.35l1,4.38a9.39,9.39,0,0,1,3.76-3.42,13.23,13.23,0,0,1,6.41-1.4,15.88,15.88,0,0,1,2.93.24,14.91,14.91,0,0,1,2.09.54L131.92,45a12.11,12.11,0,0,0-1.88-.5,14.61,14.61,0,0,0-2.72-.22,10.13,10.13,0,0,0-6,1.72q-2.44,1.73-2.44,5.45V63.32Z"/><path class="cls-1" d="M137,42a40.2,40.2,0,0,1,6.2-1.85,33.28,33.28,0,0,1,6.9-.66,27.6,27.6,0,0,1,5.29.46,13.16,13.16,0,0,1,4.12,1.5,7.33,7.33,0,0,1,2.68,2.68,8,8,0,0,1,.94,4V63.28h-6.49l-.84-2.46h-.21q-3.56,3-10.1,3c-3.49,0-6.2-.65-8.15-1.94a5.83,5.83,0,0,1-2.93-5,5.1,5.1,0,0,1,1.18-3.39A8.89,8.89,0,0,1,138.84,51a19.5,19.5,0,0,1,4.92-1.4,37.82,37.82,0,0,1,6.2-.47h4.87V47.55a2.82,2.82,0,0,0-1.6-2.73,9.7,9.7,0,0,0-4.32-.81,21.5,21.5,0,0,0-4.15.44A28.59,28.59,0,0,0,139.92,46Zm17.9,10.87-3.76.09c-3.07.07-5.2.44-6.41,1.11a2.87,2.87,0,0,0-1.81,2.43A2.42,2.42,0,0,0,144.46,59a9,9,0,0,0,3.55.66,10.62,10.62,0,0,0,3.87-.71,7.91,7.91,0,0,0,3-2Z"/><path class="cls-1" d="M4.58,34.49a7.46,7.46,0,0,1,1.82.19,7,7,0,0,1,1.41.5l-.53,1.69A8.74,8.74,0,0,0,6,36.37a4.78,4.78,0,0,0-1.24-.19,2.1,2.1,0,0,0-1.25.31,1,1,0,0,0-.45.84,1,1,0,0,0,.39.85,4.29,4.29,0,0,0,1.24.54l1,.31a4.71,4.71,0,0,1,2,1.17,2.61,2.61,0,0,1,.71,1.86,3.09,3.09,0,0,1-.25,1.24,2.67,2.67,0,0,1-.76,1A3.55,3.55,0,0,1,6.1,45a5.6,5.6,0,0,1-1.77.24,8,8,0,0,1-3.49-.75l.5-1.68a9,9,0,0,0,1.45.54,5.87,5.87,0,0,0,1.44.19,2.34,2.34,0,0,0,1.35-.33A1.1,1.1,0,0,0,6,41.91a.9.9,0,0,0-.28-.36,2.44,2.44,0,0,0-.55-.35,5.74,5.74,0,0,0-.9-.34l-.89-.29a7.24,7.24,0,0,1-1.07-.47,3.12,3.12,0,0,1-.83-.61,2.44,2.44,0,0,1-.56-.82,2.91,2.91,0,0,1-.19-1.09,3.17,3.17,0,0,1,.25-1.25,2.72,2.72,0,0,1,.75-1,3.53,3.53,0,0,1,1.23-.64A5.48,5.48,0,0,1,4.58,34.49Z"/><path class="cls-1" d="M13.07,34.68h2.39l3.91,10.38H16.93l-.82-2.39H12.35l-.83,2.39H9.12ZM12.86,41h2.7l-.5-1.39c-.16-.42-.3-.86-.44-1.29L14.23,37h0c-.12.42-.26.85-.4,1.28l-.46,1.32Z"/><path class="cls-1" d="M24.14,34.49a7.33,7.33,0,0,1,1.81.19,7,7,0,0,1,1.41.5l-.5,1.68a7,7,0,0,0-1.32-.5,4.65,4.65,0,0,0-1.28-.18,2.1,2.1,0,0,0-1.25.31,1,1,0,0,0-.45.84,1,1,0,0,0,.4.85,4.47,4.47,0,0,0,1.25.54l1,.31a4.68,4.68,0,0,1,2,1.17,2.62,2.62,0,0,1,.72,1.86,3.27,3.27,0,0,1-.25,1.24,2.89,2.89,0,0,1-.76,1,3.59,3.59,0,0,1-1.26.68,5.54,5.54,0,0,1-1.76.24,8,8,0,0,1-3.5-.75l.5-1.68a8.09,8.09,0,0,0,1.42.53,5.37,5.37,0,0,0,1.44.19,2.37,2.37,0,0,0,1.35-.32,1.11,1.11,0,0,0,.37-1.29,1,1,0,0,0-.27-.36,2.64,2.64,0,0,0-.55-.34,4.89,4.89,0,0,0-.9-.34l-.89-.3a6.76,6.76,0,0,1-1.07-.46,3.61,3.61,0,0,1-.84-.61,2.6,2.6,0,0,1-.52-.82,3.13,3.13,0,0,1-.19-1.09,3.17,3.17,0,0,1,.25-1.25,2.84,2.84,0,0,1,.75-1,3.62,3.62,0,0,1,1.23-.64A5.5,5.5,0,0,1,24.14,34.49Z"/></g></g></g></svg>