<?xml version="1.0" encoding="UTF-8"?><svg id="Layer_2" xmlns="http://www.w3.org/2000/svg" viewBox="0 0 1400.56 262.43"><defs><style>.cls-1{fill:#4e46dc;}</style></defs><g id="Curved"><g><g><path class="cls-1" d="M38.79,254.22c-11.65-5.01-20.85-12-27.61-20.97-6.76-8.96-10.48-19.27-11.18-30.93H32.85c.93,9.56,5.42,17.36,13.45,23.41,8.04,6.06,18.58,9.08,31.62,9.08,12.11,0,21.67-2.67,28.65-8.04,6.99-5.36,10.48-12.11,10.48-20.27s-3.73-14.62-11.18-18.7c-7.46-4.07-18.99-8.09-34.6-12.06-14.21-3.72-25.8-7.51-34.77-11.36-8.97-3.84-16.66-9.55-23.06-17.12-6.41-7.57-9.61-17.53-9.61-29.88,0-9.78,2.91-18.75,8.74-26.91,5.82-8.15,14.09-14.62,24.81-19.39,10.71-4.77,22.94-7.16,36.69-7.16,21.2,0,38.32,5.36,51.37,16.07,13.04,10.72,20.03,25.39,20.97,44.03h-31.8c-.7-10.01-4.72-18.05-12.06-24.11-7.34-6.06-17.18-9.09-29.53-9.09-11.42,0-20.5,2.45-27.26,7.34-6.76,4.89-10.13,11.3-10.13,19.22,0,6.29,2.04,11.48,6.12,15.55,4.07,4.08,9.2,7.34,15.38,9.78,6.17,2.45,14.73,5.19,25.68,8.21,13.74,3.73,24.93,7.4,33.55,11.01,8.62,3.61,16.01,9.03,22.19,16.25,6.17,7.22,9.38,16.66,9.61,28.3,0,10.48-2.92,19.92-8.74,28.3-5.83,8.39-14.04,14.97-24.64,19.74-10.6,4.77-22.77,7.16-36.52,7.16-14.68,0-27.84-2.51-39.49-7.51Z"/><path class="cls-1" d="M217.7,93.3v112.87c0,9.32,1.98,15.9,5.94,19.74,3.96,3.84,10.83,5.77,20.62,5.77h23.41v26.91h-28.65c-17.71,0-30.99-4.07-39.84-12.23-8.86-8.15-13.28-21.55-13.28-40.19V93.3h-24.81v-26.21h24.81V18.87h31.8v48.22h49.97v26.21h-49.97Z"/><path class="cls-1" d="M503.89,110.6c7.92-14.79,18.92-26.26,33.02-34.42,14.09-8.15,30.23-12.23,48.4-12.23,23.53,0,42.92,5.71,58.18,17.12,15.26,11.42,25.33,27.26,30.23,47.52h-34.25c-3.26-11.65-9.61-20.85-19.04-27.61-9.44-6.75-21.14-10.13-35.12-10.13-18.17,0-32.85,6.24-44.03,18.7-11.18,12.46-16.77,30.11-16.77,52.94s5.59,40.89,16.77,53.47,25.86,18.87,44.03,18.87c13.98,0,25.62-3.26,34.94-9.78,9.31-6.52,15.73-15.84,19.22-27.96h34.25c-5.13,19.57-15.38,35.24-30.75,47-15.38,11.77-34.6,17.65-57.66,17.65-18.17,0-34.31-4.07-48.4-12.23-14.1-8.15-25.11-19.68-33.02-34.59-7.92-14.91-11.88-32.38-11.88-52.42s3.96-37.1,11.88-51.89Z"/><path class="cls-1" d="M796.03,258.59l-75.13-84.57v84.57h-31.8V0h31.8V152.01l73.73-84.92h44.38l-90.16,95.4,90.51,96.1h-43.33Z"/><path class="cls-1" d="M881.29,249.33c-13.98-7.8-24.99-18.98-33.02-33.55-8.04-14.56-12.06-31.74-12.06-51.54s4.02-36.98,12.06-51.54c8.04-14.56,19.04-25.74,33.02-33.55,13.98-7.8,29.7-11.71,47.17-11.71s33.2,3.9,47.17,11.71c13.98,7.81,24.93,18.99,32.85,33.55,7.92,14.56,11.88,31.75,11.88,51.54s-3.96,36.99-11.88,51.54c-7.92,14.56-18.87,25.74-32.85,33.55-13.98,7.81-29.7,11.71-47.17,11.71s-33.2-3.9-47.17-11.71Zm89.11-4.54c12.81-6.64,23.18-16.71,31.1-30.23,7.92-13.51,11.88-30.28,11.88-50.32s-3.96-36.81-11.88-50.32c-7.92-13.51-18.29-23.59-31.1-30.23-12.81-6.64-26.79-9.96-41.93-9.96s-29.18,3.32-42.11,9.96c-12.93,6.64-23.36,16.77-31.28,30.4-7.92,13.63-11.88,30.35-11.88,50.15s3.96,36.52,11.88,50.14c7.92,13.63,18.35,23.76,31.28,30.4,12.93,6.64,26.96,9.96,42.11,9.96s29.12-3.32,41.93-9.96Z"/><path class="cls-1" d="M1179.71,86.31c14.21,13.75,21.32,34.48,21.32,62.2v110.08h-6.64v-110.77c0-24.69-6.18-43.51-18.52-56.43-12.35-12.93-29.24-19.39-50.67-19.39s-40.31,7.28-53.81,21.84c-13.51,14.56-20.27,36.05-20.27,64.47v100.29h-6.99V69.89h6.99v49.62c4.42-17.47,13.28-30.81,26.56-40.01,13.28-9.2,29.12-13.8,47.52-13.8,22.13,0,40.3,6.87,54.51,20.62Z"/><path class="cls-1" d="M1367.36,238.67c14.44-10.71,23.18-25.39,26.21-44.03h6.99c-3.27,19.8-12.53,35.82-27.78,48.05-15.26,12.23-34.89,18.35-58.88,18.35-17.47,0-33.08-3.84-46.83-11.53-13.75-7.69-24.52-18.87-32.32-33.55-7.81-14.68-11.71-31.91-11.71-51.72s3.9-37.04,11.71-51.72c7.8-14.68,18.58-25.86,32.32-33.55,13.74-7.69,29.35-11.53,46.83-11.53,18.4,0,34.12,3.9,47.17,11.71,13.04,7.81,22.89,17.88,29.53,30.23,6.64,12.35,9.96,25.39,9.96,39.14,0,8.39-.12,14.68-.35,18.87h-170.18c.23,19.34,4.25,35.53,12.06,48.57,7.8,13.05,18,22.77,30.58,29.18,12.58,6.41,26.32,9.61,41.23,9.61,21.2,0,39.02-5.36,53.46-16.07Zm-94.7-155.33c-12.58,6.41-22.77,16.13-30.58,29.18-7.81,13.05-11.83,29.24-12.06,48.57h164.24c1.16-19.33-1.92-35.52-9.26-48.57-7.34-13.04-17.36-22.77-30.05-29.18-12.7-6.41-26.38-9.61-41.06-9.61s-28.65,3.21-41.23,9.61Z"/></g><g><path class="cls-1" d="M283.06,182.71c3.17,14.98,9.44,28.55,18.79,40.67,2.51,3.25,5.15,6.4,8.14,9.22,.12,.15,.23,.31,.37,.45,9.47,9.43,20.37,16.74,32.74,21.85,17.28,7.14,35.2,9.06,53.63,6.34,11.97-1.77,23.21-5.76,33.75-11.73,4.64-2.63,9.07-5.56,13.19-8.95,.11-.07,.23-.13,.33-.21,20.98-17.29,33.42-39.34,36.81-66.35,1.14-9.08,.95-18.18-.45-27.22-1.71-11.09-5.23-21.6-10.51-31.51-4.45-8.35-9.97-15.91-16.53-22.73-.41-.43-.64-.54-1.14-.04-3.15,3.22-6.33,6.41-9.54,9.58-.48,.47-.5,.71-.02,1.22,6.99,7.32,12.5,15.62,16.62,24.87,1.36,3.05,2.17,6.1,1.43,9.45-1,4.55-3.57,7.05-8.15,7.72-6.2,.92-12.1-.32-17.83-2.58-7.21-2.83-13.41-7.19-18.9-12.59-.48-.47-.7-.45-1.15,0-3.27,3.33-6.57,6.64-9.88,9.92-.49,.49-.52,.79-.16,1.39,4.72,7.98,5.28,16.27,1.78,24.84-1.21,2.95-3.09,5.48-5.16,7.87-.46,.42-.91,.84-1.37,1.25-7.14,6.23-15.39,8.45-24.57,6.19-17.54-4.31-25.75-23.86-16.77-39.6,.35-.61,.35-.97-.18-1.49-3.47-3.41-6.92-6.85-10.34-10.31-.5-.51-.76-.57-1.3-.03-2.92,2.91-6.12,5.48-9.57,7.74-3.48,2.28-7.2,4.05-11.07,5.55-.38,.1-.76,.19-1.13,.31-4.49,1.42-9.07,2.09-13.79,1.7-3.49-.29-6.42-1.41-8.09-4.72-1.75-3.46-2.05-7.03-.57-10.66,4.07-9.97,9.82-18.85,17.25-26.64,.49-.51,.6-.8,.02-1.37-3.2-3.12-6.36-6.29-9.51-9.46-.46-.47-.7-.45-1.15,.02-8.11,8.45-14.59,18-19.38,28.68-4.95,11.05-7.8,22.61-8.51,34.7-.53,8.97,.04,17.87,1.9,26.66Zm23.47,8.55c1.93-.56,3.91-.3,5.87-.41,6.28,.16,12.53,.68,18.78,1.23,5.46,.48,10.92,1.02,16.4,1.42,8,.59,16,.96,24.02,1.19,10.85,.31,21.69,.02,32.53-.49,1.87-.09,3.74-.25,5.6-.38,3.25-.22,6.5-.38,9.74-.65,5.47-.46,10.93-1.02,16.4-1.47,5.8-.47,11.61-.94,17.44-.8,1.12,.03,2.21,.23,3.29,.57,1.13,.36,1.63,1.11,1.73,2.24,.21,2.35-.33,4.58-1.18,6.73-1.62,4.13-4.12,7.77-6.67,11.36-4.62,6.49-10.09,12.2-16.34,17.15-.12,.1-.23,.23-.34,.35-3.24,2.36-6.5,4.68-9.98,6.68-10,5.75-20.7,9.44-32.17,10.75-22.29,2.56-42.57-2.72-60.75-15.86-7.79-5.63-14.36-12.49-19.82-20.4-.26-.38-.54-.74-.82-1.1-1.25-2.11-2.58-4.18-3.75-6.34-1.44-2.68-2.41-5.53-2.4-8.62,0-1.96,.54-2.61,2.41-3.15Z"/><path class="cls-1" d="M381.87,62.03c4.57-.21,9.67,.26,14.73,1.02,5.06,.75,10.05,1.87,14.97,3.35,5.73,1.72,11.29,3.89,16.63,6.57,6.1,3.07,11.87,6.69,17.27,10.9,.52,.4,.5,.63,.07,1.05-2.95,2.95-5.89,5.91-8.82,8.87-.4,.4-.68,.42-1.16,.06-7.51-5.68-15.75-10.01-24.65-13.09-5.15-1.78-10.42-3.07-15.8-3.89-3.01-.46-6.05-.71-9.09-.9-3.66-.22-7.3-.15-10.93,.08-4.31,.28-8.59,.92-12.82,1.82-7.59,1.63-14.86,4.2-21.79,7.7-4.63,2.34-9.06,5.04-13.16,8.23-.71,.55-1.16,.63-1.86-.09-2.67-2.76-5.43-5.44-8.15-8.16-.93-.93-.93-.95,.08-1.73,7.12-5.49,14.8-10.03,23.06-13.56,5.53-2.36,11.23-4.21,17.09-5.58,4.59-1.08,9.24-1.82,13.94-2.3,3.28-.33,6.55-.39,10.41-.36Z"/><path class="cls-1" d="M381.27,87.64c8.71-.05,16.82,1.31,24.71,3.86,6.68,2.16,12.94,5.24,18.82,9.08,.79,.52,1.53,1.12,2.33,1.62,.6,.38,.53,.65,.07,1.1-2.5,2.47-4.96,4.97-7.47,7.44-.6,.6-1.02,1.61-1.85,1.69-.81,.07-1.44-.8-2.17-1.23-4.81-2.86-9.82-5.23-15.19-6.88-7.27-2.24-14.7-3.2-22.27-2.81-11.12,.56-21.49,3.7-30.96,9.61-.72,.45-1.45,.89-2.16,1.37-.34,.23-.54,.2-.84-.09-3.03-3.04-6.07-6.07-9.12-9.09-.57-.56-.04-.7,.28-.93,4.79-3.49,9.94-6.34,15.4-8.65,5.5-2.32,11.19-3.98,17.06-5,4.54-.79,9.12-1.2,13.35-1.11Z"/><path class="cls-1" d="M381.85,137.57c9.4-.14,17.97,7.59,17.91,17.85-.05,10.24-8.02,18.09-18.17,18.07-9.9-.02-17.96-8.21-17.8-18.33,.16-10.05,8.47-17.8,18.06-17.59Z"/><path class="cls-1" d="M381.69,111.39c5.04,.03,10.34,.8,15.54,2.35,4.49,1.34,8.72,3.23,12.73,5.65,.62,.38,.69,.56,.14,1.1-2.97,2.93-5.91,5.88-8.82,8.87-.52,.54-.96,.55-1.55,.25-3.49-1.79-7.19-3.01-11.05-3.68-5.67-.99-11.32-.87-16.92,.48-3.04,.73-5.98,1.77-8.75,3.22-.61,.32-1.14,.31-1.67-.24-2.93-2.97-5.87-5.92-8.84-8.84-.52-.51-.43-.67,.12-1.01,6.11-3.75,12.7-6.21,19.78-7.38,2.96-.49,5.93-.7,9.3-.76Z"/></g></g></g></svg>